
<svg xmlns="http://www.w3.org/2000/svg" width="30" height="42" viewBox="0 0 30 42">
    <g fill="none" fill-rule="evenodd" transform="scale(1.3125)">
    <path 
        d="M22 11c0 1.42-.226 2.585-.677 3.496l-7.465 15.117c-.218.43-.543.77-.974 1.016-.43.246-.892.37-1.384.37-.492 0-.954-.124-1.384-.37-.43-.248-.75-.587-.954-1.017L1.677 14.496C1.227 13.586 1 12.42 1 11c0-2.76 1.025-5.117 3.076-7.07C6.126 1.977 8.602 1 11.5 1c2.898 0 5.373.977 7.424 2.93C20.974 5.883 22 8.24 22 11z" 
        stroke="none" 
        fill="#ff3823" 
        fill-rule="nonzero"
    />
    </g>
    <g transform="translate(-4.68,0)">
        <path fill="white" stroke="none" d="M5.49 21.09L4.02 21.09L4.02 10.32Q3.34 10.78 2.13 11.29L2.13 11.29L2.13 9.84Q3.53 9.32 4.39 8.48L4.39 8.48L5.49 8.48L5.49 21.09Z"/> 
    </g>
</svg>
    